<svg id="Layer_1" enable-background="new 0 0 512 512" height="512" viewBox="0 0 512 512" width="512" xmlns="http://www.w3.org/2000/svg"><g><g><g><g id="XMLID_1739_"><g id="XMLID_1740_"><g id="XMLID_1741_"><g id="XMLID_1742_"><g id="XMLID_1743_"><g id="XMLID_1744_"><g id="XMLID_1745_"><g id="XMLID_1746_"><g id="XMLID_1747_"><g id="XMLID_1748_"><g id="XMLID_1749_"><g id="XMLID_1750_"><g id="XMLID_1751_"><g id="XMLID_1752_"><g id="XMLID_1783_"><circle cx="256" cy="256" fill="#ff815a" r="256"/></g></g></g></g></g></g></g></g></g></g></g></g></g></g></g></g></g><path d="m280.536 85.37c-7.078-2.238-32.255-7.324-36.668-6.505l-37.654-37.644c-5.152 3.716 39.784 104.215 39.784 104.215l-135.293 94.026 13.813 13.94c-21.395 13.453-28.085 75.655-18.409 84.053l173.455 173.455c130.337-11.897 232.436-121.471 232.436-254.91 0-12.033-.85-23.865-2.456-35.456l-179.976-180.163z" fill="#f46245"/><g><path d="m255.996 481.872 55.559-75.445-55.564 7.883-55.563-7.883 55.559 75.445v.013l.004-.006.005.006z" fill="#7c4a3e"/><path d="m311.55 406.43-3.52 4.78-52.03 70.66v-67.56z" fill="#66382f"/><g><ellipse cx="161.615" cy="294.683" fill="#ffdc7b" rx="74.398" ry="60.126" transform="matrix(.989 -.146 .146 .989 -41.156 26.651)"/><ellipse cx="163.697" cy="197.756" fill="#ffe8bb" rx="64.572" ry="81.06" transform="matrix(.395 -.919 .919 .395 -82.662 269.946)"/><ellipse cx="350.385" cy="294.683" fill="#ffc239" rx="60.126" ry="74.398" transform="matrix(.146 -.989 .989 .146 7.858 598.463)"/><ellipse cx="348.303" cy="197.756" fill="#ffdc7b" rx="81.06" ry="64.572" transform="matrix(.919 -.395 .395 .919 -49.805 153.793)"/></g><g><g><path d="m211.127 99.776-29.338-41.136c-4.81-6.745-3.242-16.112 3.503-20.922 6.745-4.81 16.112-3.242 20.922 3.502l29.338 41.136c4.81 6.745 3.242 16.112-3.503 20.922-6.744 4.811-16.111 3.243-20.922-3.502z" fill="#7c4a3e"/></g><g><path d="m300.872 99.776 29.338-41.136c4.81-6.745 3.242-16.112-3.503-20.922-6.745-4.81-16.112-3.242-20.922 3.502l-29.338 41.136c-4.81 6.745-3.242 16.112 3.503 20.922 6.745 4.811 16.112 3.243 20.922-3.502z" fill="#66382f"/></g></g><path d="m353.294 335.863c-.608 9.671 9.615 9.133 7.046 17.247-15.049 47.809-61.117 69.084-104.34 69.084s-89.291-21.275-104.34-69.084c-2.57-8.114 5.222-11.207 4.614-20.878-.424-6.88-9.468-19.775-8.399-26.959 1.888-12.737 5.83-25.76 10.831-38.314 2.007-5.036 10.327-8.722 12.609-13.56 3.06-6.487.167-14.026 3.454-19.956 15.731-28.431 32.226-49.08 32.226-49.08l49.005 7.5 49.006-7.497s16.495 20.649 32.226 49.08c2.667 4.811-1.973 11.133.563 16.325 2.921 5.979 12.985 10.88 15.499 17.19 5.001 12.553 8.943 25.576 10.831 38.314 1.068 7.183-10.407 23.708-10.831 30.588z" fill="#ffc239"/><path d="m360.34 353.11c-8.91 28.3-28.68 47.3-52.31 58.1-16.28 7.44-34.39 10.98-52.03 10.98v-230.33l49.01-7.49s3.65 4.57 9.15 12.37c6.2 8.78 14.74 21.65 23.07 36.71 2.67 4.81-1.97 11.13.57 16.32 2.92 5.98 12.98 10.88 15.49 17.19 5.01 12.55 8.95 25.58 10.84 38.31 1.06 7.19-10.41 23.71-10.84 30.59-.6 9.67 9.62 9.14 7.05 17.25z" fill="#f4a416"/><circle cx="256" cy="150.462" fill="#ffdc7b" r="74.332"/><path d="m330.33 150.46c0 17.49-6.05 33.58-16.17 46.28-13.61 17.09-34.61 28.05-58.16 28.05v-148.66c41.05 0 74.33 33.28 74.33 74.33z" fill="#ffc239"/><g><g><path d="m353.294 266.961c-27.639 17.969-61.606 27.722-97.294 27.722-35.689 0-69.655-9.753-97.294-27.722 4.697-11.789 10.324-23.163 16.062-33.515 21.478 15.15 49.992 24.397 81.232 24.397s59.754-9.247 81.232-24.397c5.738 10.352 11.365 21.726 16.062 33.515z" fill="#7c4a3e"/></g><g><g><path d="m353.29 266.96c-27.63 17.97-61.6 27.72-97.29 27.72v-36.84c31.24 0 59.75-9.24 81.23-24.39 5.74 10.35 11.37 21.72 16.06 33.51z" fill="#66382f"/></g></g><g><path d="m365.175 326.439c-.608 9.671-2.266 18.558-4.835 26.672-29.84 17.057-66.201 26.294-104.34 26.294s-74.5-9.238-104.34-26.294c-2.57-8.114-4.227-17.002-4.835-26.672-.424-6.88-.018-13.981 1.05-21.164 3.039 2.744 6.3 5.397 9.799 7.939 26.027 18.927 60.952 29.352 98.326 29.352s72.298-10.426 98.326-29.352c3.5-2.542 6.76-5.194 9.799-7.939 1.068 7.183 1.474 14.284 1.05 21.164z" fill="#7c4a3e"/></g><g><path d="m365.17 326.44c-.6 9.67-2.26 18.56-4.83 26.67-29.84 17.06-66.2 26.3-104.34 26.3v-36.84c37.37 0 72.3-10.43 98.33-29.36 3.5-2.54 6.76-5.19 9.8-7.94 1.06 7.19 1.47 14.29 1.04 21.17z" fill="#66382f"/></g></g></g></g></svg>