<svg height="480pt" viewBox="0 0 480 480" width="480pt" xmlns="http://www.w3.org/2000/svg"><path d="m80 328h320v152h-320zm0 0" fill="#dbaf89"/><path d="m80 328h288v152h-288zm0 0" fill="#ebc49d"/><path d="m144 168h192v136h-192zm0 0" fill="#dbaf89"/><path d="m144 168h168v136h-168zm0 0" fill="#ebc49d"/><path d="m400 304h-320c-8.839844 0-16 7.160156-16 16v32c0 8.839844 7.160156 16 16 16s16-7.160156 16-16 7.160156-16 16-16 16 7.160156 16 16 7.160156 16 16 16 16-7.160156 16-16 7.160156-16 16-16 16 7.160156 16 16 7.160156 16 16 16 16-7.160156 16-16 7.160156-16 16-16 16 7.160156 16 16 7.160156 16 16 16 16-7.160156 16-16 7.160156-16 16-16 16 7.160156 16 16 7.160156 16 16 16 16-7.160156 16-16 7.160156-16 16-16 16 7.160156 16 16 7.160156 16 16 16 16-7.160156 16-16v-32c0-8.839844-7.160156-16-16-16zm0 0" fill="#d46b69"/><path d="m400 320h-320c-8.839844 0-16 7.160156-16 16v16c0 8.839844 7.160156 16 16 16s16-7.160156 16-16 7.160156-16 16-16 16 7.160156 16 16 7.160156 16 16 16 16-7.160156 16-16 7.160156-16 16-16 16 7.160156 16 16 7.160156 16 16 16 16-7.160156 16-16 7.160156-16 16-16 16 7.160156 16 16 7.160156 16 16 16 16-7.160156 16-16 7.160156-16 16-16 16 7.160156 16 16 7.160156 16 16 16 16-7.160156 16-16 7.160156-16 16-16 16 7.160156 16 16 7.160156 16 16 16 16-7.160156 16-16v-16c0-8.839844-7.160156-16-16-16zm0 0" fill="#ed7775"/><path d="m352 160v32c0 8.839844-7.160156 16-16 16s-16-7.160156-16-16-7.160156-16-16-16-16 7.160156-16 16-7.160156 16-16 16-16-7.160156-16-16-7.160156-16-16-16-16 7.160156-16 16-7.160156 16-16 16-16-7.160156-16-16-7.160156-16-16-16-16 7.160156-16 16-7.160156 16-16 16-16-7.160156-16-16v-32c0-8.839844 7.160156-16 16-16h192c8.839844 0 16 7.160156 16 16zm0 0" fill="#d46b69"/><path d="m336 160h-192c-8.839844 0-16 7.160156-16 16v16c0 8.839844 7.160156 16 16 16s16-7.160156 16-16 7.160156-16 16-16 16 7.160156 16 16 7.160156 16 16 16 16-7.160156 16-16 7.160156-16 16-16 16 7.160156 16 16 7.160156 16 16 16 16-7.160156 16-16 7.160156-16 16-16 16 7.160156 16 16 7.160156 16 16 16 16-7.160156 16-16v-16c0-8.839844-7.160156-16-16-16zm0 0" fill="#ed7775"/><path d="m96 128-8.625-1.726562c-19-3.800782-33.855469-18.65625-37.65625-37.65625l-1.71875-8.617188-1.726562 8.625c-3.800782 19-18.65625 33.855469-37.65625 37.65625l-8.617188 1.71875c26.511719 0 48 21.488281 48 48l1.726562-8.625c3.800782-19 18.65625-33.855469 37.65625-37.65625zm0 0" fill="#699ce6"/><path d="m480 48-8.625-1.726562c-19-3.800782-33.855469-18.65625-37.65625-37.65625l-1.71875-8.617188-1.726562 8.625c-3.800782 19-18.65625 33.855469-37.65625 37.65625l-8.617188 1.71875c26.511719 0 48 21.488281 48 48l1.726562-8.625c3.800782-19 18.65625-33.855469 37.65625-37.65625zm0 0" fill="#dc6068"/><g fill="#bc8f6f"><path d="m146.339844 421.65625 11.316406-11.3125 32 32-11.3125 11.316406zm0 0"/><path d="m194.339844 442.339844 32-32 11.316406 11.3125-32 32zm0 0"/><path d="m98.339844 442.339844 32.003906-32.003906 11.3125 11.316406-32 32zm0 0"/><path d="m290.339844 442.339844 32-32 11.3125 11.3125-32 32zm0 0"/><path d="m242.339844 421.660156 11.316406-11.316406 32 32-11.316406 11.316406zm0 0"/><path d="m194.34375 266.339844 32-32 11.3125 11.3125-32 32zm0 0"/><path d="m242.339844 245.660156 11.316406-11.3125 32 32-11.3125 11.3125zm0 0"/><path d="m338.339844 421.660156 11.3125-11.316406 32 32-11.3125 11.316406zm0 0"/><path d="m162.339844 261.65625 11.316406-11.3125 15.996094 15.996094-11.3125 11.316406zm0 0"/><path d="m290.339844 266.34375 16-16 11.3125 11.3125-16 16zm0 0"/><path d="m232 72h16v72h-16zm0 0"/></g><path d="m158.050781 31.765625 3.878907-15.519531 31.996093 8-3.878906 15.519531zm0 0" fill="#eebc5a"/><path d="m158.054688 64.230469 32-7.988281 3.875 15.523437-32 7.988281zm0 0" fill="#eebc5a"/><path d="m286.050781 24.230469 32-7.988281 3.875 15.523437-32 7.988281zm0 0" fill="#eebc5a"/><path d="m286.042969 71.769531 3.878906-15.519531 32 8-3.882813 15.519531zm0 0" fill="#eebc5a"/><path d="m240 0-9.945312 9.945312c-9 9-14.054688 21.207032-14.054688 33.933594v.234375c0 12.726563 5.054688 24.933594 14.054688 33.941407l9.945312 9.945312 9.945312-9.945312c9-9 14.054688-21.207032 14.054688-33.933594v-.242188c0-12.726562-5.054688-24.933594-14.054688-33.941406zm0 0" fill="#eebc5a"/><path d="m232 8-1.945312 1.945312c-9 9-14.054688 21.207032-14.054688 33.933594v.234375c0 12.726563 5.054688 24.933594 14.054688 33.941407l1.945312 1.945312 1.945312-1.945312c9-9 14.054688-21.207032 14.054688-33.933594v-.242188c0-12.726562-5.054688-24.933594-14.054688-33.941406zm0 0" fill="#f8cf6a"/></svg>