<svg viewBox="0 -26 512 512" xmlns="http://www.w3.org/2000/svg"><g fill-rule="evenodd"><path d="m457.667969 329.996094v100.003906c0 10.945312-8.175781 19.914062-18.195313 19.996094h-366.945312c-10.019532-.082032-18.195313-9.046875-18.195313-19.996094v-183.28125h403.332031v83.277344zm0 0" fill="#c1a06c"/><path d="m133.777344 210h323.890625c10.082031 0 18.332031 9 18.332031 20v80c0 11-8.25 20-18.332031 20s-18.332031-9-18.332031-20v-29.761719c0-12.222656-9.167969-22.222656-20.371094-22.222656s-20.371094 10-20.371094 22.222656v2.558594c0 12.222656-9.167969 22.222656-20.371094 22.222656s-20.371094-10-20.371094-22.222656v-2.558594c0-12.222656-9.164062-22.222656-20.367187-22.222656-11.207031 0-20.371094 10-20.371094 22.222656v21.058594c0 12.222656-9.167969 22.222656-20.371093 22.222656-11.203126 0-20.371094-10-20.371094-22.222656v-21.058594c0-12.222656-9.164063-22.222656-20.371094-22.222656-11.203125 0-20.367188 10-20.367188 22.222656v2.558594c0 12.222656-9.167968 22.222656-20.371093 22.222656-11.207031 0-20.371094-10-20.371094-22.222656v-2.558594c0-12.222656-9.167969-22.222656-20.371094-22.222656s-20.371093 10-20.371093 22.222656v101.0625c0 12.21875-9.167969 22.21875-20.371094 22.21875s-20.371094-10-20.371094-22.21875v-101.0625c0-12.222656-9.164062-22.222656-20.367188-22.222656-11.203124 0-20.371093 10-20.371093 22.222656v29.761719c0 11-8.25 20-18.332031 20-10.082032 0-18.332032-9-18.332032-20v-80c0-11 8.25-20 18.332032-20zm0 0" fill="#7c594e"/><path d="m256.0625 89.996094c11 0 20 9 20 20v100h-40v-100c0-10.949219 8.917969-19.917969 19.851562-19.996094.050782 0 .101563 0 .148438-.003906zm0 0" fill="#ff6359"/><path d="m276.050781 81.832031c-5.460937 5.464844-12.75 8.121094-19.988281 8.164063-.046875 0-.097656 0-.144531.003906-7.308594.007812-14.621094-2.714844-20.199219-8.167969-19.414062-18.980469 5.386719-54.710937 20.167969-71.832031 14.777343 17.121094 40.113281 51.882812 20.164062 71.832031zm0 0" fill="#ffb86e"/></g><path d="m415.96875 220h.269531c5.523438 0 10-4.476562 10-10s-4.476562-10-10-10h-.269531c-5.523438 0-10 4.476562-10 10s4.476562 10 10 10zm0 0"/><path d="m113.40625 311.261719c-5.523438 0-10 4.476562-10 10v.269531c0 5.523438 4.476562 10 10 10s10-4.476562 10-10v-.269531c0-5.523438-4.476562-10-10-10zm0 0"/><path d="m502 439.996094h-35.957031c1.046875-3.128906 1.625-6.492188 1.625-10v-91.933594c10.699219-4.289062 18.332031-15.25 18.332031-28.0625v-80c0-16.542969-12.710938-30-28.332031-30h-12.699219c-5.523438 0-10 4.476562-10 10s4.476562 10 10 10h12.699219c4.515625 0 8.332031 4.578125 8.332031 10v80c0 5.417969-3.816406 10-8.332031 10-4.519531 0-8.332031-4.578125-8.332031-10v-29.761719c0-17.765625-13.625-32.222656-30.371094-32.222656s-30.371094 14.457031-30.371094 32.222656v2.558594c0 6.625-4.75 12.222656-10.371094 12.222656s-10.371094-5.597656-10.371094-12.222656v-2.558594c0-17.765625-13.625-32.222656-30.371093-32.222656-16.746094 0-30.371094 14.457031-30.371094 32.222656v21.058594c0 6.625-4.746094 12.222656-10.371094 12.222656-5.621093 0-10.367187-5.597656-10.367187-12.222656v-21.058594c0-17.765625-13.625-32.222656-30.371094-32.222656s-30.371094 14.457031-30.371094 32.222656v2.558594c0 6.625-4.75 12.222656-10.371094 12.222656-5.621093 0-10.371093-5.597656-10.371093-12.222656v-2.558594c0-17.765625-13.621094-32.222656-30.371094-32.222656-16.746094 0-30.367187 14.457031-30.367187 32.222656v101.0625c0 6.625-4.75 12.21875-10.371094 12.21875-5.625 0-10.371094-5.59375-10.371094-12.21875v-31.035156c0-5.523437-4.476562-10-10-10s-10 4.476563-10 10v31.035156c0 17.765625 13.621094 32.21875 30.371094 32.21875 16.746094 0 30.371094-14.453125 30.371094-32.21875v-101.0625c0-6.625 4.746093-12.222656 10.367187-12.222656 5.625 0 10.371094 5.597656 10.371094 12.222656v2.558594c0 17.765625 13.625 32.222656 30.371093 32.222656 16.746094 0 30.371094-14.457031 30.371094-32.222656v-2.558594c0-6.625 4.75-12.222656 10.371094-12.222656s10.371094 5.597656 10.371094 12.222656v21.058594c0 17.765625 13.621094 32.222656 30.367187 32.222656 16.75 0 30.371094-14.457031 30.371094-32.222656v-21.058594c0-6.625 4.75-12.222656 10.371094-12.222656 5.621093 0 10.371093 5.597656 10.371093 12.222656v2.558594c0 17.765625 13.625 32.222656 30.371094 32.222656s30.371094-14.457031 30.371094-32.222656v-2.558594c0-6.625 4.75-12.222656 10.371094-12.222656s10.371094 5.597656 10.371094 12.222656v29.761719c0 12.816406 7.628906 23.773438 18.332031 28.0625v91.9375c0 5.414062-3.8125 9.992188-8.324219 10h-366.683594c-4.515625-.007812-8.324218-4.582031-8.324218-10v-32.234375c1.910156 1.746094 4.320312 2.617187 6.726562 2.617187 2.660156 0 5.3125-1.054687 7.28125-3.144531 3.789062-4.019531 3.597656-10.347656-.421875-14.136719l-13.585937-12.804687v-32.234375c10.699218-4.289062 18.332031-15.246094 18.332031-28.0625v-29.761719c0-6.625 4.746093-12.222656 10.371093-12.222656 5.621094 0 10.367188 5.597656 10.367188 12.222656v1.0625c0 5.519531 4.480469 10 10 10 5.523438 0 10-4.480469 10-10v-1.0625c0-17.765625-13.621094-32.222656-30.367188-32.222656-16.75 0-30.371093 14.457031-30.371093 32.222656v29.761719c0 5.417969-3.816407 10-8.332031 10-4.519532 0-8.335938-4.582031-8.335938-10v-80c0-5.421875 3.816406-10 8.332031-10h321.667969c5.523438 0 10-4.476562 10-10s-4.476562-10-10-10h-89.9375v-90c0-6.847656-2.3125-13.160156-6.1875-18.21875 1.128906-.894531 2.21875-1.847656 3.246094-2.878906 18.71875-18.71875 11.734375-49.0625-19.667969-85.4375-1.898437-2.199219-4.664063-3.464844-7.570313-3.464844s-5.667968 1.265625-7.570312 3.464844c-6.3125 7.316406-17.902344 21.964844-24.5625 37.894531-10.484375 25.085937-3.082031 39.746094 4.976562 47.625 1.082032 1.054687 2.222657 2.035156 3.402344 2.949219-3.804687 5.027344-6.070312 11.285156-6.070312 18.066406v90h-171.726563c-15.621093 0-28.332031 13.457031-28.332031 29.996094v80c0 12.816406 7.632812 23.777344 18.332031 28.066406v91.9375c0 3.503906.578125 6.867188 1.625 10h-35.957031c-5.523438 0-10 4.476562-10 10s4.476562 10 10 10h429.335938 62.664062c5.523438 0 10-4.476562 10-10s-4.476562-10.003906-10-10.003906zm-246.074219-414.011719c10.703125 14.246094 24.574219 37.257813 13.054688 48.777344-3.347657 3.347656-7.957031 5.207031-12.980469 5.234375-.039062 0-.078125 0-.117188 0-4.988281 0-9.664062-1.886719-13.171874-5.316406-10.398438-10.164063 1.1875-32.363282 13.214843-48.695313zm-9.863281 84.011719c0-5.511719 4.484375-9.996094 9.996094-10h.007812c5.511719.003906 9.996094 4.488281 9.996094 10v90h-20zm0 0"/><path d="m280.796875 414.109375c.101563 0 .203125-.003906.304687-.003906 5.519532-.164063 9.859376-4.773438 9.699219-10.292969l-.347656-11.625c-.164063-5.523438-4.785156-9.867188-10.292969-9.699219-5.519531.164063-9.859375 4.769531-9.695312 10.289063l.34375 11.628906c.160156 5.417969 4.601562 9.703125 9.988281 9.703125zm0 0"/><path d="m213.511719 376.855469c1.507812.8125 3.128906 1.199219 4.730469 1.199219 3.5625 0 7.007812-1.90625 8.8125-5.261719 2.621093-4.863281.800781-10.925781-4.0625-13.546875l-10.242188-5.511719c-4.863281-2.617187-10.929688-.796875-13.546875 4.0625-2.617187 4.863281-.796875 10.929687 4.066406 13.546875zm0 0"/><path d="m333.988281 366.464844 11.625-.347656c5.523438-.164063 9.863281-4.769532 9.699219-10.289063-.164062-5.523437-4.75-9.875-10.289062-9.699219l-11.628907.34375c-5.519531.164063-9.863281 4.773438-9.699219 10.292969.160157 5.417969 4.605469 9.703125 9.992188 9.703125.097656 0 .199219 0 .300781-.003906zm0 0"/><path d="m405.570312 407.246094c1.792969 0 3.609376-.484375 5.246094-1.496094 4.699219-2.902344 6.15625-9.0625 3.253906-13.761719l-6.113281-9.894531c-2.902343-4.699219-9.0625-6.15625-13.761719-3.253906-4.699218 2.902344-6.15625 9.0625-3.253906 13.761718l6.113282 9.894532c1.886718 3.0625 5.164062 4.75 8.515624 4.75zm0 0"/></svg>