<svg id="Layer_1" height="512" viewBox="0 0 512 512" width="512" xmlns="http://www.w3.org/2000/svg" data-name="Layer 1"><path d="m249 127h12v41h-12z" fill="#4a5160"/><path d="m242.58 410.76h26.84v51.75h-26.84z" fill="#495f7b"/><path d="m334.28 461h-168.21a32.567 32.567 0 0 0 -32.98 32.612 1.418 1.418 0 0 0 1.52 1.388h231.14c.83 0 1.51-.435 1.51-1.265a32.765 32.765 0 0 0 -32.98-32.735z" fill="#5a7591"/><path d="m196 382v28.25a2.019 2.019 0 0 0 1.8 1.75h116.4a2.019 2.019 0 0 0 1.8-1.75v-28.25z" fill="#5a7591"/><path d="m92.99 357a24.842 24.842 0 0 0 24.93 25h276a24.981 24.981 0 0 0 25.095-25z" fill="#ffbbd7"/><g fill="#a7a9ac"><circle cx="142.23" cy="323.66" r="9.59"/><circle cx="312.24" cy="323.66" r="9.59"/><circle cx="198.9" cy="323.66" r="9.59"/></g><path d="m399.825 267.79-287.825-.01v89.22h288v-89.22z" fill="#a2c6f8"/><path d="m321.35 48.37c5.48 28.39-12.14 66.03-63.68 86.33a5.822 5.822 0 0 1 -1.67.33 5.757 5.757 0 0 1 -1.66-.33c-51.71-20.8-69.17-58.27-63.68-86.33 3.82-18.82 17.29-31.04 34.75-31.04 9.64 0 20.28 3.96 30.59 11.39 10.48-7.76 20.95-11.72 30.76-11.72 17.46 0 30.93 12.22 34.59 31.37z" fill="#c9767f"/><path d="m384.38 243.3-256.745.25a15.635 15.635 0 0 0 -15.635 15.53v8.7c12 23.34 45.535 23.34 57.6 0l.053-.01a32.4 32.4 0 0 0 57.551 0l.016.01c12.069 23.34 45.573 23.34 57.642 0l.133-.01v.02a31.959 31.959 0 0 0 57 0v-.02l.155.02c12.08 23.34 45.6 23.34 57.683 0l.162-.01v-8.95a15.6 15.6 0 0 0 -15.615-15.53z" fill="#ffdeed"/><path d="m372.425 185.3-232.425-.01v57.86.39l232-.23v-.16-57.86z" fill="#ffbbd7"/><path d="m359.64 165.48-207.415.2a12.283 12.283 0 0 0 -12.225 12.57v7.04c9 18.9 36.36 18.71 46.13-.29h.01c4.88 10 14.08 14.17 23.28 14.17s18.4-4.17 23.28-14.17h.01a26.141 26.141 0 0 0 46.56 0h-.27v.3c10 18.89 37.08 18.7 46.85-.3h.01a26 26 0 0 0 46.35.15l-.21.14v-7.25a12.38 12.38 0 0 0 -12.36-12.56z" fill="#a2c6f8"/><path d="m122.99 357h-30a24.842 24.842 0 0 0 24.93 25h30a24.842 24.842 0 0 1 -24.93-25z" fill="#dd9fbb"/><path d="m142 357v-71.754a32.006 32.006 0 0 1 -30-17.466v89.22z" fill="#8ab0dd"/><path d="m142 285.246v-26.166a15.635 15.635 0 0 1 15.635-15.53l12.365-.012v-.028l-30 .03-12.365.012a15.635 15.635 0 0 0 -15.635 15.528v8.7a32.006 32.006 0 0 0 30 17.466z" fill="#e5c6d6"/><path d="m170 243.51v-45.2c-11.283 3.242-24.31-1.066-30-13.016v58.25z" fill="#dd9fbb"/><path d="m152.225 166a12.013 12.013 0 0 0 -12.225 12.25v7.04c5.69 11.95 18.717 16.258 30 13.016v-20.131a11.95 11.95 0 0 1 12.225-12.175z" fill="#8ab0dd"/><path d="m220.66 48.37c2.68-13.2 10.113-23.151 20.339-27.917a43.656 43.656 0 0 0 -15.589-3.123c-17.46 0-30.93 12.22-34.75 31.04-5.49 28.06 11.97 65.53 63.68 86.33a5.757 5.757 0 0 0 1.66.33 5.822 5.822 0 0 0 1.67-.33q7.152-2.817 13.437-6.059c-41.449-21.469-55.439-54.758-50.447-80.271z" fill="#af646f"/><path d="m209.638 75.673a6 6 0 0 1 -5.885-4.863 44.273 44.273 0 0 1 -.079-16.933c3.09-15.154 14.011-24.913 27.832-24.913a6 6 0 1 1 0 12c-8.11 0-14.115 5.7-16.064 15.26a32.288 32.288 0 0 0 .094 12.31 6 6 0 0 1 -4.753 7.029 6.063 6.063 0 0 1 -1.145.11z" fill="#f4f8fc"/><path d="m217.036 93.389a5.994 5.994 0 0 1 -5.024-2.712c-.621-.948-1.217-1.914-1.773-2.871a6 6 0 1 1 10.38-6.022c.447.771.928 1.55 1.431 2.317a6 6 0 0 1 -5.014 9.288z" fill="#f4f8fc"/></svg>