<svg id="Layer_1" height="512" viewBox="0 0 512 512" width="512" xmlns="http://www.w3.org/2000/svg" data-name="Layer 1"><path d="m242.58 410.76h26.84v51.75h-26.84z" fill="#495f7b"/><path d="m334.28 461h-168.21a32.567 32.567 0 0 0 -32.98 32.612 1.418 1.418 0 0 0 1.52 1.388h231.14c.83 0 1.51-.435 1.51-1.265a32.765 32.765 0 0 0 -32.98-32.735z" fill="#5a7591"/><path d="m196 382v28.25a2.019 2.019 0 0 0 1.8 1.75h116.4a2.019 2.019 0 0 0 1.8-1.75v-28.25z" fill="#5a7591"/><path d="m92.99 357a24.842 24.842 0 0 0 24.93 25h276a24.981 24.981 0 0 0 25.095-25z" fill="#ffbbd7"/><circle cx="142.23" cy="323.66" fill="#a7a9ac" r="9.59"/><circle cx="312.24" cy="323.66" fill="#a7a9ac" r="9.59"/><circle cx="198.9" cy="323.66" fill="#a7a9ac" r="9.59"/><path d="m399.825 267.79-287.825-.01v89.22h288v-89.22z" fill="#a2c6f8"/><path d="m321.35 48.37c5.48 28.39-12.14 66.03-63.68 86.33a5.822 5.822 0 0 1 -1.67.33 5.757 5.757 0 0 1 -1.66-.33c-51.71-20.8-69.17-58.27-63.68-86.33 3.82-18.82 17.29-31.04 34.75-31.04 9.64 0 20.28 3.96 30.59 11.39 10.48-7.76 20.95-11.72 30.76-11.72 17.46 0 30.93 12.22 34.59 31.37z" fill="#c9767f"/><path d="m384.38 243.3-256.745.25a15.635 15.635 0 0 0 -15.635 15.53v8.7c12 23.34 45.535 23.34 57.6 0l.053-.01a32.4 32.4 0 0 0 57.551 0l.016.01c12.069 23.34 45.573 23.34 57.642 0l.133-.01v.02a31.959 31.959 0 0 0 57 0v-.02l.155.02c12.08 23.34 45.6 23.34 57.683 0l.162-.01v-8.95a15.6 15.6 0 0 0 -15.615-15.53z" fill="#ffdeed"/><path d="m372.425 185.3-232.425-.01v57.86.39l232-.23v-.16-57.86z" fill="#ffbbd7"/><path d="m359.64 165.48-207.415.2a12.283 12.283 0 0 0 -12.225 12.57v7.04c9 18.9 36.36 18.71 46.13-.29h.01c4.88 10 14.08 14.17 23.28 14.17s18.4-4.17 23.28-14.17h.01a26.141 26.141 0 0 0 46.56 0h-.27v.3c10 18.89 37.08 18.7 46.85-.3h.01a26 26 0 0 0 46.35.15l-.21.14v-7.25a12.38 12.38 0 0 0 -12.36-12.56z" fill="#a2c6f8"/><path d="m122.99 357h-30a24.842 24.842 0 0 0 24.93 25h30a24.842 24.842 0 0 1 -24.93-25z" fill="#dd9fbb"/><path d="m142 357v-71.754a32.006 32.006 0 0 1 -30-17.466v89.22z" fill="#8ab0dd"/><path d="m142 285.246v-26.166a15.635 15.635 0 0 1 15.635-15.53l12.365-.012v-.028l-30 .03-12.365.012a15.635 15.635 0 0 0 -15.635 15.528v8.7a32.006 32.006 0 0 0 30 17.466z" fill="#e5c6d6"/><path d="m170 243.51v-45.2c-11.283 3.242-24.31-1.066-30-13.016v58.25z" fill="#dd9fbb"/><path d="m152.225 166a12.013 12.013 0 0 0 -12.225 12.25v7.04c5.69 11.95 18.717 16.258 30 13.016v-20.131a11.95 11.95 0 0 1 12.225-12.175z" fill="#8ab0dd"/><path d="m220.66 48.37c2.68-13.2 10.113-23.151 20.339-27.917a43.656 43.656 0 0 0 -15.589-3.123c-17.46 0-30.93 12.22-34.75 31.04-5.49 28.06 11.97 65.53 63.68 86.33a5.757 5.757 0 0 0 1.66.33 5.822 5.822 0 0 0 1.67-.33q7.152-2.817 13.437-6.059c-41.449-21.469-55.439-54.758-50.447-80.271z" fill="#af646f"/><g fill="#284268"><path d="m368.916 339.249a15.59 15.59 0 1 0 -15.59-15.589 15.606 15.606 0 0 0 15.59 15.589zm0-19.179a3.59 3.59 0 1 1 -3.59 3.59 3.593 3.593 0 0 1 3.59-3.59z"/><path d="m157.815 323.66a15.589 15.589 0 1 0 -15.588 15.589 15.606 15.606 0 0 0 15.588-15.589zm-15.588 3.589a3.59 3.59 0 1 1 3.588-3.589 3.594 3.594 0 0 1 -3.588 3.589z"/><path d="m198.9 339.249a15.59 15.59 0 1 0 -15.59-15.589 15.607 15.607 0 0 0 15.59 15.589zm0-19.179a3.59 3.59 0 1 1 -3.588 3.59 3.595 3.595 0 0 1 3.588-3.59z"/><path d="m255.571 339.249a15.59 15.59 0 1 0 -15.589-15.589 15.606 15.606 0 0 0 15.589 15.589zm0-19.179a3.59 3.59 0 1 1 -3.589 3.59 3.594 3.594 0 0 1 3.589-3.59z"/><path d="m312.243 339.249a15.59 15.59 0 1 0 -15.589-15.589 15.606 15.606 0 0 0 15.589 15.589zm0-19.179a3.59 3.59 0 1 1 -3.589 3.59 3.594 3.594 0 0 1 3.589-3.59z"/><path d="m231.506 28.964c-13.821 0-24.742 9.759-27.832 24.913a44.273 44.273 0 0 0 .079 16.933 6 6 0 0 0 5.885 4.863 6.063 6.063 0 0 0 1.145-.11 6 6 0 0 0 4.753-7.029 32.288 32.288 0 0 1 -.094-12.31c1.949-9.556 7.954-15.26 16.064-15.26a6 6 0 1 0 0-12z"/><path d="m220.619 81.784a6 6 0 1 0 -10.38 6.022c.556.957 1.152 1.923 1.773 2.871a6 6 0 0 0 10.038-6.577c-.503-.766-.984-1.545-1.431-2.316z"/><path d=""/><path d="m117.917 388h72.083v22.251a7.993 7.993 0 0 0 7.8 7.749h39.2v37h-70.927a38.815 38.815 0 0 0 -38.98 38.733 7.316 7.316 0 0 0 7.514 7.267h231.142a7.316 7.316 0 0 0 7.514-7.267 38.815 38.815 0 0 0 -38.98-38.733h-59.283v-37h39.2a7.993 7.993 0 0 0 7.8-7.749v-22.251h72.083a31 31 0 0 0 30.929-30.909 6.03 6.03 0 0 0 -6-6.091h-13.012v-92.172a21.925 21.925 0 0 0 -21.688-21.828h-.021l-6.291.308v-59.265a18.8 18.8 0 0 0 -5.226-13.373 18.179 18.179 0 0 0 -12.9-5.67h-.017l-98.857.208v-19.392c53.9-21.7 72.14-62.039 66.239-92.576-4.205-22.015-20.093-36.24-40.477-36.24-10.084 0-20.433 3.5-30.811 10.422-10.251-6.615-20.739-10.092-30.541-10.092-20.258 0-36.2 14.068-40.63 35.84l-.009.044c-3.218 16.464.781 34.339 11.263 50.332 11.248 17.165 29.528 31.431 52.966 41.42v20.268l-96.885.2a18.692 18.692 0 0 0 -18.55 18.69v59.356l-5.895.035a21.566 21.566 0 0 0 -21.5 21.544v91.941h-13.182a6.03 6.03 0 0 0 -6 6.091 31 31 0 0 0 30.929 30.909zm216.366 79c13.348 0 24.464 9.251 26.607 22h-221.424c2.143-12.749 13.258-22 26.607-22zm-85.283-12v-37h14v37zm61-49h-108v-18h108zm-113.456-356.46c3.293-16.167 14.352-26.21 28.866-26.21 8.406 0 17.772 3.547 27.085 10.258a6 6 0 0 0 7.079-.046c9.311-6.896 18.713-10.542 27.188-10.542 14.576 0 25.569 10.151 28.693 26.5 4.985 25.8-11.478 60.3-59.446 79.4-47.957-19.506-64.435-53.866-59.465-79.36zm-50.544 128.704a6.6 6.6 0 0 1 6.344-6.806l207.519-.438h.006a6.287 6.287 0 0 1 4.424 2.159 6.9 6.9 0 0 1 1.707 4.884v5.683c-3 6.127-9.825 9.744-17.072 9.744a19.7 19.7 0 0 1 -17.815-10.87 5.918 5.918 0 0 0 -5.2-3.311 6.025 6.025 0 0 0 -5.351 3.112c-.024.045-.034.09-.058.135a20.206 20.206 0 0 1 -35.874.045 6 6 0 0 0 -10.589-.231c-.034.061-.066.122-.1.184a20.154 20.154 0 0 1 -35.941-.215 6.139 6.139 0 0 0 -5.295-3.319h-.038a6.112 6.112 0 0 0 -5.292 3.386 20.2 20.2 0 0 1 -35.909.107 6.007 6.007 0 0 0 -10.662.034 19.568 19.568 0 0 1 -17.737 10.931c-7.222 0-14.067-3.587-17.067-9.73zm0 22.194a31.255 31.255 0 0 0 17.067 5.024 32.084 32.084 0 0 0 23.185-10.162 32.667 32.667 0 0 0 46.465-.006 32.176 32.176 0 0 0 46.565.173 32.234 32.234 0 0 0 46.573.045 31.608 31.608 0 0 0 23.074 9.95 31.257 31.257 0 0 0 17.071-5.018v36.875l-220 .213zm-28 58.638a9.741 9.741 0 0 1 9.6-9.678l256.7-.4h.01a9.929 9.929 0 0 1 9.69 9.83v7.388a26.321 26.321 0 0 1 -22.854 13.08 25.937 25.937 0 0 1 -23.5-14.2 5.963 5.963 0 0 0 -5.359-3.1h-.015a5.9 5.9 0 0 0 -5.317 3.139 26.442 26.442 0 0 1 -46.878 0 5.924 5.924 0 0 0 -5.323-3.135h-.006a5.9 5.9 0 0 0 -5.325 3.137 26.394 26.394 0 0 1 -46.866-.083c-.043-.084-.094-.191-.142-.273a6 6 0 0 0 -10.521.24 26.384 26.384 0 0 1 -46.868 0 6 6 0 0 0 -10.663.008 26.079 26.079 0 0 1 -23.516 14.261 26.351 26.351 0 0 1 -22.847-13.063zm27 103.924a6 6 0 0 0 0-12h-27v-67.188c7 4.77 14.466 7.475 22.847 7.475a38.3 38.3 0 0 0 28.8-12.964 38.312 38.312 0 0 0 57.562-.135 38.111 38.111 0 0 0 28.775 12.812 38.079 38.079 0 0 0 28.76-12.818 38.367 38.367 0 0 0 57.536.109 38.42 38.42 0 0 0 28.863 12.987c8.385 0 15.853-2.689 22.853-7.462v67.184h-208.996a6 6 0 0 0 0 12h227.038c-2.515 7-9.613 13-17.955 13h-276.166c-8.342 0-15.44-6-17.955-13z"/></g></svg>