<svg id="Capa_1" enable-background="new 0 0 510 510" height="512" viewBox="0 0 510 510" width="512" xmlns="http://www.w3.org/2000/svg" xmlns:xlink="http://www.w3.org/1999/xlink"><linearGradient id="lg1"><stop offset="0" stop-color="#f8f6fb"/><stop offset="1" stop-color="#efdcfb"/></linearGradient><linearGradient id="SVGID_1_" gradientUnits="userSpaceOnUse" x1="256.485" x2="259.172" xlink:href="#lg1" y1="381.108" y2="425.435"/><linearGradient id="SVGID_2_" gradientUnits="userSpaceOnUse" x1="234.504" x2="282.568" xlink:href="#lg1" y1="233.212" y2="414.617"/><linearGradient id="lg2"><stop offset="0" stop-color="#efdcfb" stop-opacity="0"/><stop offset=".0287" stop-color="#e9d6f7" stop-opacity=".029"/><stop offset=".2203" stop-color="#c5b5de" stop-opacity=".22"/><stop offset=".4138" stop-color="#aa9bcb" stop-opacity=".414"/><stop offset=".6078" stop-color="#9688bd" stop-opacity=".608"/><stop offset=".8028" stop-color="#8a7db5" stop-opacity=".803"/><stop offset="1" stop-color="#8679b2"/></linearGradient><linearGradient id="SVGID_3_" gradientUnits="userSpaceOnUse" x1="278.717" x2="196.221" xlink:href="#lg2" y1="414.815" y2="20.335"/><linearGradient id="SVGID_4_" gradientUnits="userSpaceOnUse" x1="301.625" x2="161.625" xlink:href="#lg2" y1="376.943" y2="-26.057"/><linearGradient id="SVGID_5_" gradientUnits="userSpaceOnUse" x1="162.671" x2="14.568" xlink:href="#lg2" y1="392.996" y2="244.894"/><linearGradient id="SVGID_6_" gradientUnits="userSpaceOnUse" x1="211.313" x2="115.313" xlink:href="#lg2" y1="386.479" y2="263.479"/><linearGradient id="lg3"><stop offset="0" stop-color="#ffdecf"/><stop offset=".3791" stop-color="#fdc4b0"/><stop offset=".7655" stop-color="#fbae97"/><stop offset="1" stop-color="#faa68e"/></linearGradient><linearGradient id="SVGID_7_" gradientTransform="matrix(1.006 -.108 -.003 .994 -21.888 141.99)" gradientUnits="userSpaceOnUse" x1="244.588" x2="388.294" xlink:href="#lg3" y1="65.471" y2="371.545"/><linearGradient id="SVGID_8_" gradientTransform="matrix(1.006 -.108 -.003 .994 -21.888 141.99)" gradientUnits="userSpaceOnUse" x1="267.037" x2="321.159" xlink:href="#lg3" y1="42.259" y2="185.964"/><linearGradient id="SVGID_9_" gradientTransform="matrix(1.006 -.108 -.003 .994 -21.888 141.99)" gradientUnits="userSpaceOnUse" x1="167.238" x2="208.081" xlink:href="#lg3" y1="26.088" y2="134.535"/><linearGradient id="SVGID_10_" gradientTransform="matrix(1.006 -.108 -.003 .994 -21.888 141.99)" gradientUnits="userSpaceOnUse" x1="398.578" x2="262.338" y1="84.848" y2="-47.037"><stop offset="0" stop-color="#f82814" stop-opacity="0"/><stop offset=".2458" stop-color="#f12817" stop-opacity=".246"/><stop offset=".608" stop-color="#dd2820" stop-opacity=".608"/><stop offset="1" stop-color="#c0272d"/></linearGradient><linearGradient id="lg4"><stop offset="0" stop-color="#faa68e"/><stop offset=".3527" stop-color="#faa38f"/><stop offset=".651" stop-color="#fc9893"/><stop offset=".9287" stop-color="#fe879a"/><stop offset="1" stop-color="#ff819c"/></linearGradient><linearGradient id="SVGID_11_" gradientTransform="matrix(1.006 -.108 -.003 .994 -21.888 141.99)" gradientUnits="userSpaceOnUse" x1="240.812" x2="259.475" xlink:href="#lg4" y1="37.079" y2="185.14"/><linearGradient id="lg5"><stop offset="0" stop-color="#a57c52"/><stop offset=".1339" stop-color="#a26c4a"/><stop offset=".5155" stop-color="#994336"/><stop offset=".8174" stop-color="#942a2a"/><stop offset="1" stop-color="#922125"/></linearGradient><linearGradient id="SVGID_12_" gradientTransform="matrix(1.006 -.108 -.003 .994 -21.888 141.99)" gradientUnits="userSpaceOnUse" x1="244.374" x2="278.901" xlink:href="#lg5" y1="131.194" y2="267.434"/><linearGradient id="SVGID_13_" gradientTransform="matrix(1.006 -.108 -.003 .994 -21.888 141.99)" gradientUnits="userSpaceOnUse" x1="253.805" x2="288.331" xlink:href="#lg5" y1="128.804" y2="265.044"/><linearGradient id="SVGID_14_" gradientTransform="matrix(1.006 -.108 -.003 .994 -21.888 141.99)" gradientUnits="userSpaceOnUse" x1="431.465" x2="469.925" xlink:href="#lg3" y1="22.88" y2="124.996"/><linearGradient id="lg6"><stop offset="0" stop-color="#bada00"/><stop offset=".2269" stop-color="#b0ce00"/><stop offset=".6378" stop-color="#95ae00"/><stop offset="1" stop-color="#798c00"/></linearGradient><linearGradient id="SVGID_15_" gradientTransform="matrix(-.797 -.134 .302 .75 2360.946 204.469)" gradientUnits="userSpaceOnUse" x1="2795.098" x2="2802.078" xlink:href="#lg6" y1="377.545" y2="393.651"/><linearGradient id="SVGID_16_" gradientTransform="matrix(-.994 .108 .108 .994 2645.853 -146.1)" gradientUnits="userSpaceOnUse" x1="2403.345" x2="2416.639" xlink:href="#lg6" y1="-8.094" y2=".237"/><linearGradient id="lg7"><stop offset="0" stop-color="#ff6359"/><stop offset=".2243" stop-color="#fe5b50"/><stop offset=".5952" stop-color="#fc4637"/><stop offset="1" stop-color="#f82814"/></linearGradient><linearGradient id="SVGID_17_" gradientTransform="matrix(.994 -.108 .108 .994 -19.553 141.99)" gradientUnits="userSpaceOnUse" x1="293.601" x2="316.849" xlink:href="#lg7" y1="11.547" y2="34.796"/><linearGradient id="SVGID_18_" gradientTransform="matrix(.994 -.108 .108 .994 -19.553 141.99)" gradientUnits="userSpaceOnUse" x1="308.748" x2="297.005" xlink:href="#lg7" y1="11.269" y2="-14.566"/><linearGradient id="SVGID_19_" gradientTransform="matrix(.994 -.108 .108 .994 -19.553 141.99)" gradientUnits="userSpaceOnUse" x1="295.375" x2="290.061" xlink:href="#lg7" y1="10.769" y2="-.923"/><linearGradient id="SVGID_20_" gradientTransform="matrix(.994 -.108 .108 .994 -19.553 141.99)" gradientUnits="userSpaceOnUse" x1="305.738" x2="300.424" xlink:href="#lg7" y1="18.345" y2="6.653"/><linearGradient id="SVGID_21_" gradientTransform="matrix(.994 -.108 .108 .994 -19.553 141.99)" gradientUnits="userSpaceOnUse" x1="265.111" x2="288.359" xlink:href="#lg7" y1="32.189" y2="55.438"/><linearGradient id="SVGID_22_" gradientTransform="matrix(.994 -.108 .108 .994 -19.553 141.99)" gradientUnits="userSpaceOnUse" x1="280.258" x2="268.515" xlink:href="#lg7" y1="31.911" y2="6.075"/><linearGradient id="SVGID_23_" gradientTransform="matrix(.994 -.108 .108 .994 -19.553 141.99)" gradientUnits="userSpaceOnUse" x1="266.885" x2="261.57" xlink:href="#lg7" y1="31.41" y2="19.719"/><linearGradient id="SVGID_24_" gradientTransform="matrix(.994 -.108 .108 .994 -19.553 141.99)" gradientUnits="userSpaceOnUse" x1="277.248" x2="271.934" xlink:href="#lg7" y1="38.987" y2="27.295"/><linearGradient id="lg8"><stop offset="0" stop-color="#42210b" stop-opacity="0"/><stop offset="1" stop-color="#42210b"/></linearGradient><linearGradient id="SVGID_25_" gradientTransform="matrix(-.97 .244 -.244 -.97 -842.24 -3310.068)" gradientUnits="userSpaceOnUse" x1="-12.962" x2="1.297" xlink:href="#lg8" y1="-3675.033" y2="-3655.265"/><linearGradient id="SVGID_26_" gradientTransform="matrix(-.97 .244 -.244 -.97 -842.24 -3310.068)" gradientUnits="userSpaceOnUse" x1="-3.183" x2="8.073" xlink:href="#lg8" y1="-3687.517" y2="-3671.911"/><linearGradient id="SVGID_27_" gradientTransform="matrix(-.97 .244 -.244 -.97 -842.24 -3310.068)" gradientUnits="userSpaceOnUse" x1="-19.626" x2="-12.84" xlink:href="#lg8" y1="-3687.954" y2="-3678.545"/><linearGradient id="SVGID_28_" gradientTransform="matrix(-.829 -.56 .56 -.829 478.94 -2969.003)" gradientUnits="userSpaceOnUse" x1="-1477.571" x2="-1467.035" xlink:href="#lg8" y1="-2882.643" y2="-2868.036"/><linearGradient id="SVGID_29_" gradientTransform="matrix(-.829 -.56 .56 -.829 478.94 -2969.003)" gradientUnits="userSpaceOnUse" x1="-1470.346" x2="-1462.028" xlink:href="#lg8" y1="-2891.867" y2="-2880.336"/><linearGradient id="SVGID_30_" gradientTransform="matrix(-.829 -.56 .56 -.829 478.94 -2969.003)" gradientUnits="userSpaceOnUse" x1="-1482.496" x2="-1477.481" xlink:href="#lg8" y1="-2892.19" y2="-2885.238"/><linearGradient id="SVGID_31_" gradientTransform="matrix(.885 -.466 .466 .885 4585.728 3391.621)" gradientUnits="userSpaceOnUse" x1="-2256.692" x2="-2242.434" xlink:href="#lg8" y1="-4696.616" y2="-4676.848"/><linearGradient id="SVGID_32_" gradientTransform="matrix(.885 -.466 .466 .885 4585.728 3391.621)" gradientUnits="userSpaceOnUse" x1="-2246.913" x2="-2235.657" xlink:href="#lg8" y1="-4709.1" y2="-4693.494"/><linearGradient id="SVGID_33_" gradientTransform="matrix(.885 -.466 .466 .885 4585.728 3391.621)" gradientUnits="userSpaceOnUse" x1="-2263.356" x2="-2256.57" xlink:href="#lg8" y1="-4709.536" y2="-4700.128"/><linearGradient id="SVGID_34_" gradientTransform="matrix(.937 .349 -.349 .937 3221.387 3371.206)" gradientUnits="userSpaceOnUse" x1="-3734.923" x2="-3724.387" xlink:href="#lg8" y1="-1891.523" y2="-1876.916"/><linearGradient id="SVGID_35_" gradientTransform="matrix(.937 .349 -.349 .937 3221.387 3371.206)" gradientUnits="userSpaceOnUse" x1="-3727.698" x2="-3719.38" xlink:href="#lg8" y1="-1900.748" y2="-1889.217"/><linearGradient id="SVGID_36_" gradientTransform="matrix(.937 .349 -.349 .937 3221.387 3371.206)" gradientUnits="userSpaceOnUse" x1="-3739.848" x2="-3734.833" xlink:href="#lg8" y1="-1901.071" y2="-1894.119"/><linearGradient id="SVGID_37_" gradientTransform="matrix(-.829 -.56 .56 -.829 478.94 -2969.003)" gradientUnits="userSpaceOnUse" x1="-1558.077" x2="-1547.54" xlink:href="#lg8" y1="-2887.628" y2="-2873.021"/><linearGradient id="SVGID_38_" gradientTransform="matrix(-.829 -.56 .56 -.829 478.94 -2969.003)" gradientUnits="userSpaceOnUse" x1="-1550.851" x2="-1542.533" xlink:href="#lg8" y1="-2896.853" y2="-2885.321"/><linearGradient id="SVGID_39_" gradientTransform="matrix(-.829 -.56 .56 -.829 478.94 -2969.003)" gradientUnits="userSpaceOnUse" x1="-1563.001" x2="-1557.987" xlink:href="#lg8" y1="-2897.175" y2="-2890.223"/><linearGradient id="SVGID_40_" gradientUnits="userSpaceOnUse" x1="166.754" x2="175.444" xlink:href="#lg4" y1="336.772" y2="363.632"/><linearGradient id="SVGID_41_" gradientUnits="userSpaceOnUse" x1="162.167" x2="179.373" xlink:href="#lg4" y1="339.004" y2="354.102"/><linearGradient id="SVGID_42_" gradientUnits="userSpaceOnUse" x1="112.018" x2="124.518" xlink:href="#lg3" y1="337.137" y2="361.137"/><g><g><path d="m255 380.36c-63.228 0-121.254-8.908-166.705-23.76 6.539 24.61 18.824 43.222 33.972 49.178 34.188 13.444 81.041 21.736 132.733 21.736s98.545-8.292 132.733-21.736c15.148-5.957 27.433-24.568 33.972-49.178-45.451 14.852-103.477 23.76-166.705 23.76z" fill="url(#SVGID_1_)"/><path d="m510 310.569c0 124.932-510 124.932-510 0s510-124.932 510 0z" fill="url(#SVGID_2_)"/><path d="m475 301.407c0 89.07-440 89.07-440 0s440-89.07 440 0z" fill="url(#SVGID_3_)"/></g><path d="m510 310.569c0-102.194-341.237-120.789-465.455-55.795-.062 22.563-.129 46.957-.139 50.742l-.001.328c-.022 8.126 3.641 15.117 9.537 19.452l66.177 66.177c150.773 31.606 389.881 4.641 389.881-80.904z" fill="url(#SVGID_4_)"/><path d="m189.543 401.461-59.667-59.667c-2.701-3.15-6.702-5.153-11.177-5.153-8.135 0-14.729 6.594-14.729 14.729 0 1.332.8 2.441 2.121 3.337l41.777 41.777c13.469 2.074 27.425 3.732 41.675 4.977z" fill="url(#SVGID_5_)"/><path d="m272.163 404.073-76.261-76.261c-3.144-3.778-8.176-6.361-15.985-6.629-.871-.03-1.742.058-2.588.27-6.642 1.665-38.162 10.483-39.165 28.148-.186 3.281 1.309 5.882 3.917 7.946l43.561 43.561c28.128 2.617 57.473 3.605 86.521 2.965z" fill="url(#SVGID_6_)"/><g><g><g><path d="m465.539 237.281.049-17.87c.256-93.422-47.503-113.204-66.781-117.382-4.4-.959-9.079-.808-13.662.434l-320.823 87.184c-11.319 3.074-19.635 13.634-19.666 24.977 0 0-.229 83.609-.249 90.891l-.001.328c-.036 13.133 9.536 23.32 22.644 24.079l366.518 21.285c16.572.956 31.695-13.286 31.741-29.898-.001.001.206-75.516.23-84.028z" fill="url(#SVGID_7_)"/><path d="m398.812 102.023c-4.404-.955-9.088-.799-13.665.445l-320.824 87.178c-4.037 1.097-7.68 3.158-10.714 5.854l411.978 24.259.001-.346c.258-93.426-47.501-113.21-66.776-117.39z" fill="url(#SVGID_8_)"/><path d="m280.186 208.845-226.576-13.345c3.03-2.698 6.677-4.757 10.716-5.856l172.312-46.822c-2.085 4.063-3.281 8.605-3.293 13.309-.023 8.285 3.609 15.289 9.323 19.557z" fill="url(#SVGID_9_)"/><path d="m465.594 219.417-.001.343-45.908-2.702-2.187-.128-.3-.024-137.012-8.062-37.518-33.157c-5.714-4.268-9.346-11.272-9.323-19.557.013-4.704 1.208-9.246 3.293-13.309l76.261-20.722 72.25-19.635c4.574-1.24 9.258-1.397 13.667-.44 19.267 4.177 67.034 23.96 66.778 117.393z" fill="url(#SVGID_10_)"/></g><path d="m428.364 301.339.128-46.631c.021-7.768-5.64-13.793-13.389-14.249l-370.459-21.815c-.046 16.749-.221 80.551-.238 86.872l-.001.328c-.005 1.71.157 3.369.465 4.965l351.753 20.428c16.571.956 31.695-13.286 31.741-29.898z" fill="url(#SVGID_11_)"/><g><path d="m428.382 293.639-.021 7.7c-.017 6.346-2.24 12.352-5.904 17.288l-378.031-21.951.069-25.337z" fill="url(#SVGID_12_)"/><path d="m428.489 254.71-.068 24.864-383.887-22.29.069-25.327 383.877 22.291c.01.147.009.305.009.462z" fill="url(#SVGID_13_)"/></g><path d="m394.838 95.218c-4.646-.998-9.601-.785-14.427.526-4.729 1.285-5.973 7.552-1.913 9.624 21.407 10.928 48.655 37.497 52.287 102.053.34 6.046 4.92 10.579 10.999 10.937l8.208.357c8.252.359 15.647-6.993 15.18-15.178-4.877-85.428-51.166-104.203-70.334-108.319z" fill="url(#SVGID_14_)"/></g><g><g><path d="m253.357 112.442c5.447 5.012 8.309 12.132 6.393 15.903s-7.885 2.766-13.331-2.246-16.33-19.512-14.415-23.284c1.916-3.771 15.906 4.615 21.353 9.627z" fill="url(#SVGID_15_)"/><path d="m261.688 111.584c1.204 9.204-1.33 17.172-5.659 17.798s-8.814-6.327-10.018-15.531-.443-30.726 3.886-31.352c4.329-.625 10.587 19.882 11.791 29.085z" fill="url(#SVGID_16_)"/></g><g><g><path d="m306.244 125.073c1.587 14.684-8.47 27.814-22.463 29.326s-26.623-9.165-28.21-23.849 8.47-27.814 22.463-29.326c13.993-1.513 26.623 9.165 28.21 23.849z" fill="url(#SVGID_17_)"/><path d="m288.158 107.9c.303 2.806-2.274 5.386-5.757 5.763-3.483.376-6.552-1.593-6.855-4.4-.303-2.806 2.274-5.386 5.757-5.763s6.552 1.594 6.855 4.4z" fill="url(#SVGID_18_)"/><path d="m274.515 115.532c.145 1.338-.772 2.534-2.047 2.672s-2.426-.835-2.57-2.173.772-2.534 2.047-2.672 2.426.835 2.57 2.173z" fill="url(#SVGID_19_)"/><path d="m285.633 121.95c.145 1.338-.772 2.534-2.047 2.672s-2.426-.835-2.57-2.173.772-2.534 2.047-2.672c1.274-.137 2.425.835 2.57 2.173z" fill="url(#SVGID_20_)"/></g><g><path d="m280.137 148.657c1.587 14.684-8.47 27.814-22.463 29.326s-26.623-9.165-28.21-23.849 8.47-27.814 22.463-29.326 26.623 9.165 28.21 23.849z" fill="url(#SVGID_21_)"/><path d="m262.052 131.484c.303 2.806-2.274 5.386-5.757 5.763-3.483.376-6.552-1.593-6.855-4.4s2.274-5.386 5.757-5.763c3.482-.376 6.551 1.594 6.855 4.4z" fill="url(#SVGID_22_)"/><path d="m248.408 139.115c.145 1.338-.772 2.534-2.047 2.672s-2.426-.835-2.57-2.173.772-2.534 2.047-2.672 2.426.835 2.57 2.173z" fill="url(#SVGID_23_)"/><path d="m259.526 145.534c.145 1.338-.772 2.534-2.047 2.672s-2.426-.835-2.57-2.173.772-2.534 2.047-2.672 2.425.835 2.57 2.173z" fill="url(#SVGID_24_)"/></g></g></g><g opacity=".5"><g><circle cx="62.23" cy="245.376" fill="url(#SVGID_25_)" r="5.149"/><circle cx="57.062" cy="260.933" fill="url(#SVGID_26_)" r="4.065"/><circle cx="74.994" cy="258.921" fill="url(#SVGID_27_)" r="2.451"/></g><g><circle cx="89.38" cy="240.985" fill="url(#SVGID_28_)" r="3.805"/><circle cx="78.266" cy="245.802" fill="url(#SVGID_29_)" r="3.004"/><circle cx="88.209" cy="254.687" fill="url(#SVGID_30_)" r="1.811"/></g><g><circle cx="408.268" cy="290.116" fill="url(#SVGID_31_)" r="5.149"/><circle cx="409.629" cy="273.78" fill="url(#SVGID_32_)" r="4.065"/><circle cx="392.674" cy="279.958" fill="url(#SVGID_33_)" r="2.451"/></g><g><circle cx="382.915" cy="300.776" fill="url(#SVGID_34_)" r="3.805"/><circle cx="392.583" cy="293.477" fill="url(#SVGID_35_)" r="3.004"/><circle cx="380.827" cy="287.184" fill="url(#SVGID_36_)" r="1.811"/></g><g><circle cx="153.298" cy="290.183" fill="url(#SVGID_37_)" r="3.805"/><circle cx="142.184" cy="295.001" fill="url(#SVGID_38_)" r="3.004"/><circle cx="152.127" cy="303.885" fill="url(#SVGID_39_)" r="1.811"/></g></g></g><g><g><path d="m179.918 321.184c-.871-.03-1.742.058-2.588.27-6.642 1.665-38.162 10.483-39.165 28.148-.625 11.002 17.551 14.404 33.774 15.259 14.815.781 27.598-7.116 28.466-17.56.982-11.829-1.951-25.482-20.487-26.117z" fill="url(#SVGID_40_)"/><path d="m179.918 321.184c-.871-.03-1.742.058-2.588.27-6.642 1.665-38.162 10.483-39.165 28.148-.625 11.002 17.551 14.404 33.774 15.259 14.814.781 26.515-43.042 7.979-43.677z" fill="url(#SVGID_41_)"/></g><path d="m133.427 351.37c0 8.135-29.458 8.135-29.458 0s6.595-14.729 14.729-14.729 14.729 6.594 14.729 14.729z" fill="url(#SVGID_42_)"/></g></g></svg>