<svg id="Capa_1" enable-background="new 0 0 496.06 496.06" height="16px" viewBox="0 0 496.06 496.06" width="16px" xmlns="http://www.w3.org/2000/svg"><g><path d="m399.06 20.07-46.61-19.18c-6.03-2.48-12.93.4-15.41 6.43l-51.61 125.46v62.342l49.755 9.385 5.595-11.777 64.7-157.26c2.48-6.03-.4-12.92-6.42-15.4z" fill="#904111"/><path d="m338.548 142.044c-5.04-12.84-14.1-23.47-25.58-30.48-4.917-3.012-10.283-5.341-15.969-6.906l-11.569 28.122v62.342l49.755 9.385 5.595-11.777 15.307-37.204c-5.19-5.266-11.089-9.817-17.539-13.482z" fill="#84380d"/><g><path d="m377.34 38.17-54.76 133.09c-3.61-3-7.48-5.68-11.57-8-1.65-4.21-3.74-8.19-6.2-11.87l50.33-122.36z" fill="#5e2102"/></g><path d="m319.351 116.038-14.541 35.352c2.46 3.68 4.55 7.66 6.2 11.87 4.09 2.32 7.96 5 11.57 8l13.928-33.85c-4.104-8.388-9.993-15.66-17.157-21.372z" fill="#4f1901"/><path d="m311.01 163.26c-5.04-12.84-14.1-23.47-25.58-30.48-5.42-3.32-11.38-5.82-17.72-7.37l-9.38-2.29c1.52-4.12 2.24-8.33 2.24-12.47 0-15.47-10.06-29.88-25.83-34.54l-6.94-2.05c-4.68-1.38-8.94 3.16-7.24 7.74 1.08 2.91 1.61 5.96 1.61 8.99 0 4.83-1.35 9.62-3.98 13.81l-5 7.94c-12.26-1.32-24.44 2.65-33.69 9.65v54.979h132.54z" fill="#fee2bc"/><path d="m238.13 172.488c0-2.53-.2-5.01-.58-7.43-2.67-16.77-14.2-30.59-29.65-36.49-5.21-1.99-10.86-3.08-16.77-3.08-4.014 0-7.91.506-11.63 1.454v50.227h58.397c.152-1.54.233-3.101.233-4.681z" fill="#f7d1a4"/><path d="m340.78 192.73c-7.15-12.3-17.47-22.48-29.77-29.47-13.88-7.9-30.27-11.74-47.48-10.02l-54.3 5.43-.08.01h-41.352l-5.066 54.43c-.001 0-.001 0-.002 0v.02 32.035h188.83v-11.295-2.5c-.27-14.14-4.18-27.29-10.78-38.64z" fill="#f5ab71"/><path d="m193.121 224.77c25.96 0 47-21.04 47-47 0-2.53-.2-5.01-.58-7.43-.806-5.06-2.43-9.844-4.713-14.23l-25.598 2.56-.08.01h-41.352l-5.066 54.43c-.001 0-.001 0-.002 0v.02.477c8.196 6.958 18.801 11.163 30.391 11.163z" fill="#e8955d"/><g><path d="m364.69 243.64c-3.67-4.04-8.12-7.38-13.13-9.77-4.3-2.05-9.01-3.4-13.99-3.89l-167.46-16.58c-2.49-.25-4.95-.33-7.38-.271-31.4.79-57.27 26.54-57.27 58.84v14.18h270.15v-14.18c0-10.839-4.11-20.809-10.92-28.329z" fill="#fee2bc"/><path d="m213.136 217.66-43.026-4.26c-2.49-.25-4.95-.33-7.38-.271-31.4.79-57.27 26.54-57.27 58.84v14.18h71.505v-14.18c0-24.65 15.076-45.472 36.171-54.309z" fill="#f7d1a4"/><path d="m209.15 158.68c.38 2.42.58 4.9.58 7.43 0 25.96-21.04 47-47 47-25.95 0-47-21.04-47-47s21.05-47 47-47c5.91 0 11.56 1.09 16.77 3.08 15.45 5.9 26.98 19.72 29.65 36.49z" fill="#fe185e"/><path d="m161.815 166.11c0-17.581 9.661-32.895 23.953-40.956-2.006-1.131-4.093-2.134-6.268-2.965-5.21-1.99-10.86-3.08-16.77-3.08-25.95 0-47 21.04-47 47s21.05 47 47 47c8.377 0 16.234-2.201 23.045-6.041-14.296-8.058-23.96-23.375-23.96-40.958z" fill="#e4154d"/></g><g id="XMLID_188_"><path d="m114.286 291.504-8.826 8.826 30.42 171.69c2.47 13.91 14.56 24.04 28.68 24.04h151.94c14.13 0 26.22-10.13 28.69-24.04l30.42-171.69v-8.826z" fill="#fee2bc"/><path d="m246.787 457.796c-14.12 0-26.21-10.13-28.68-24.04l-25.204-142.251h-78.618l-8.826 8.826 30.42 171.69c2.47 13.91 14.56 24.04 28.68 24.04h151.941c14.13 0 26.22-10.13 28.69-24.04l2.52-14.224h-100.923z" fill="#f7d1a4"/><path d="m375.61 300.33-30.42 171.69c-2.47 13.91-14.56 24.04-28.69 24.04h-21.74c10.08 0 18.71-10.13 20.47-24.04l21.71-171.69z" fill="#fe185e"/><path d="m346.618 463.962 1.093-6.167h-30.682l-1.799 14.224c-1.76 13.909-10.389 24.039-20.468 24.04h21.738c7.065 0 13.62-2.533 18.717-6.804.637-.534 1.252-1.095 1.841-1.682.59-.587 1.155-1.199 1.694-1.835.808-.955 1.557-1.963 2.239-3.021 2.048-3.173 3.504-6.786 4.198-10.698z" fill="#e20a52"/><path d="m290.6 300.33-11.27 171.69c-.92 13.91-5.4 24.04-10.63 24.04h-28.64v-195.73z" fill="#fe185e"/><g fill="#e20a52"><path d="m246.787 457.796c-2.308 0-4.561-.275-6.727-.789v39.053h28.641c5.229-.001 9.709-10.131 10.629-24.04l.934-14.224z"/><path d="m212.37 496.06h-26.06c-10.08 0-18.71-10.13-20.47-24.04l-21.71-171.69h46.33l11.28 171.69c.91 13.91 5.4 24.04 10.63 24.04z"/></g></g><g><path d="m386.28 276.12c2.56 2.57 4.15 6.11 4.15 10.03 0 7.83-6.35 14.18-14.18 14.18h-69.77-85.55-117.06c-3.91 0-7.46-1.59-10.03-4.15-2.56-2.57-4.15-6.11-4.15-10.03 0-7.83 6.35-14.18 14.18-14.18h19.96 53.02 158.17 22.22 19.01c3.91 0 7.46 1.59 10.03 4.15z" fill="#f5ab71"/></g><path d="m184.815 286.15c0-7.83 6.35-14.18 14.18-14.18h-22.145-53.02-19.96c-7.83 0-14.18 6.35-14.18 14.18 0 3.92 1.59 7.46 4.15 10.03 2.57 2.56 6.12 4.15 10.03 4.15h95.125c-3.91 0-7.46-1.59-10.03-4.15-2.56-2.57-4.15-6.11-4.15-10.03z" fill="#e8955d"/><g><path d="m162.734 138.271c-4.142 0-7.5-3.357-7.5-7.5v-22.48c0-10.563 4.113-20.492 11.582-27.961l4.518-4.518c2.929-2.93 7.677-2.929 10.607-.001 2.929 2.929 2.929 7.678 0 10.606l-4.518 4.519c-4.636 4.636-7.189 10.799-7.189 17.354v22.48c0 4.143-3.358 7.501-7.5 7.501z" fill="#e4154d"/></g></g></svg>